# xmcd CD database file
#
# Track frame offsets:
#	150
#	8400
#	39600
#	49650
#	87450
#	109725
#	137550
#	160350
#	173250
#	209175
#	228300
#	272700
#
# Disc length: 4034 seconds
#
# Revision: 0
# Processed by: cddbd v1.5.2PL0 Copyright (c) Steve Scherf et al.
# Submitted via: CDex 1.70beta2
#
DISCID=9a0fc00c
DTITLE=The Marsalis Family - Music Redeems (Promo)
DYEAR=2010
DGENRE=Jazz
TTITLE0=Introducing ... The Marsalis Family
TTITLE1=Donna Lee
TTITLE2=Wynton And Brandford Speak
TTITLE3=Monkey Puzzle
TTITLE4=After
TTITLE5=Syndrome
TTITLE6=Sweet Georga Brown
TTITLE7=Harry Speaks
TTITLE8=Teo
TTITLE9=The Man And The Ocean
TTITLE10=At The House In Da Pocket
TTITLE11=The 2nd Line
EXTD=YEAR: 2010
EXTT0=
EXTT1=
EXTT2=
EXTT3=
EXTT4=
EXTT5=
EXTT6=
EXTT7=
EXTT8=
EXTT9=
EXTT10=
EXTT11=
PLAYORDER=
